# xmcd CD database file
#
# Track frame offsets:
#	150
#	18359
#	33808
#	54051
#	70440
#	81754
#	107461
#	122145
#	137102
#	155645
#
# Disc length: 2233 seconds
#
# Revision: 0
# Processed by: cddbd v1.5.2PL0 Copyright (c) Steve Scherf et al.
# Submitted via: Feurio! 1.68 - http://www.feurio.com
#
DISCID=7908b70a
DTITLE=Willia Elliott Whitmore - Animals In The Dark
DYEAR=2009
DGENRE=
TTITLE0=Mutiny
TTITLE1=Who Stole The Soul
TTITLE2=Johnny Law
TTITLE3=Old Devils
TTITLE4=Hell On High Water
TTITLE5=There's Hope For You
TTITLE6=Hard Times
TTITLE7=Lifetime Underground
TTITLE8=Let The Rain Come In
TTITLE9=A Good Day To Die
EXTD=
EXTT0=
EXTT1=
EXTT2=
EXTT3=
EXTT4=
EXTT5=
EXTT6=
EXTT7=
EXTT8=
EXTT9=
PLAYORDER=
